<?xml version="1.0" encoding="UTF-8" standalone="no"?><!DOCTYPE svg PUBLIC "-//W3C//DTD SVG 1.1//EN" "http://www.w3.org/Graphics/SVG/1.1/DTD/svg11.dtd"><svg width="100%" height="100%" viewBox="0 0 3843 2289" version="1.1" xmlns="http://www.w3.org/2000/svg" xmlns:xlink="http://www.w3.org/1999/xlink" xml:space="preserve" xmlns:serif="http://www.serif.com/" style="fill-rule:evenodd;clip-rule:evenodd;stroke-linejoin:round;stroke-miterlimit:1.4;"><g id="Layer-1" serif:id="Layer 1"><g id="g162"><g id="g11136"><path id="path132" d="M1780.707,15.664c-309.647,34.726 -578.043,230.405 -715.373,520.892c-53.261,112.998 -79.892,209.459 -91.902,334.583l-6.788,65.043l-107.567,0c-78.848,0 -115.922,2.205 -138.375,8.268c-126.365,34.175 -211.479,148.275 -211.479,283.321c0,47.404 -13.576,122.368 -31.33,170.874c-34.463,93.154 -92.946,165.914 -196.336,240.878c-102.345,74.413 -142.553,118.51 -184.326,201.742c-41.774,83.232 -52.739,141.109 -52.739,283.872l0,100.871l3651.015,0l-2.089,-122.919c-2.611,-112.998 -3.655,-126.227 -16.709,-171.977c-24.02,-84.886 -71.537,-165.362 -129.498,-220.483c-15.143,-14.331 -56.394,-46.853 -91.38,-72.208c-101.823,-74.413 -155.607,-140.558 -192.681,-235.366c-19.32,-50.16 -33.419,-125.124 -33.419,-176.938c-0.522,-109.69 -61.094,-212.766 -151.952,-258.517c-54.828,-27.56 -80.414,-31.419 -199.991,-31.419l-106.001,0l-6.266,-64.491c-41.251,-428.289 -343.588,-773.345 -740.438,-845.002c-68.927,-12.678 -184.848,-17.639 -244.376,-11.024Zm224.533,201.191c63.705,13.78 146.73,44.648 195.814,72.759c208.868,118.51 342.544,316.393 379.618,561.13c9.921,66.696 6.788,204.498 -6.266,267.336c-39.685,191.82 -144.641,359.388 -295.026,469.629c-242.287,178.04 -562.9,181.347 -808.842,7.717c-167.617,-117.959 -276.228,-297.101 -312.258,-513.175c-9.921,-61.184 -6.788,-216.074 6.266,-275.053c66.838,-313.086 298.681,-544.593 595.274,-595.856c60.05,-9.922 186.937,-7.717 245.42,5.512Z" style="fill:#6e2a1e;fill-opacity:0.12;fill-rule:nonzero;"/><path id="path10510" d="M1789.273,68.242c-308.706,33.923 -576.286,225.077 -713.199,508.846c-53.1,110.385 -79.649,204.615 -91.623,326.846l-6.768,63.539l-107.24,0c-78.608,0 -115.569,2.154 -137.955,8.077c-125.981,33.385 -210.836,144.846 -210.836,276.769c0,46.308 -13.535,119.538 -31.235,166.923c-34.359,91 -92.664,162.077 -195.739,235.308c-102.034,72.692 -142.119,115.769 -183.766,197.077c-41.647,81.308 -52.579,137.846 -52.579,277.308l0,98.539l3639.918,0l-2.082,-120.077c-2.603,-110.385 -3.644,-123.308 -16.659,-168c-23.947,-82.923 -71.32,-161.539 -129.105,-215.385c-15.097,-14 -56.223,-45.769 -91.102,-70.539c-101.514,-72.692 -155.134,-137.308 -192.095,-229.923c-19.262,-49 -33.317,-122.231 -33.317,-172.846c-0.521,-107.154 -60.908,-207.846 -151.49,-252.539c-54.661,-26.923 -80.17,-30.692 -199.383,-30.692l-105.678,0l-6.247,-63c-41.126,-418.385 -342.544,-755.462 -738.187,-825.462c-68.717,-12.385 -184.286,-17.231 -243.633,-10.769Zm223.851,196.539c63.511,13.462 146.284,43.615 195.219,71.077c208.233,115.769 341.503,309.077 378.464,548.154c9.891,65.154 6.768,199.769 -6.247,261.154c-39.564,187.385 -144.201,351.077 -294.13,458.769c-241.551,173.923 -561.189,177.154 -806.383,7.538c-167.107,-115.231 -275.389,-290.231 -311.309,-501.308c-9.891,-59.769 -6.768,-211.077 6.247,-268.692c66.635,-305.847 297.774,-532.001 593.465,-582.077c59.867,-9.692 186.369,-7.539 244.674,5.385Z" style="fill:#561a10;fill-rule:nonzero;"/><path id="path6399" d="M1799.021,62.001c-302.413,33.825 -564.538,224.425 -698.66,507.372c-52.017,110.065 -78.026,204.022 -89.755,325.899l-6.63,63.354l-105.054,0c-77.006,0 -113.213,2.148 -135.142,8.054c-123.413,33.288 -206.538,144.426 -206.538,275.967c0,46.174 -13.259,119.192 -30.598,166.439c-33.658,90.736 -90.775,161.607 -191.749,234.626c-99.954,72.482 -139.222,115.434 -180.02,196.506c-40.798,81.072 -51.507,137.447 -51.507,276.504l0,98.253l3565.717,0l-2.04,-119.729c-2.55,-110.065 -3.57,-122.95 -16.319,-167.513c-23.459,-82.683 -69.866,-161.07 -126.473,-214.76c-14.789,-13.96 -55.077,-45.637 -89.245,-70.334c-99.444,-72.482 -151.971,-136.91 -188.179,-229.257c-18.869,-48.858 -32.638,-121.877 -32.638,-172.345c-0.51,-106.843 -59.667,-207.244 -148.401,-251.807c-53.547,-26.845 -78.536,-30.603 -195.319,-30.603l-103.524,0l-6.12,-62.817c-40.288,-417.172 -335.561,-753.272 -723.139,-823.069c-67.316,-12.349 -180.53,-17.181 -238.666,-10.738Zm219.287,195.969c62.216,13.422 143.302,43.489 191.239,70.871c203.988,115.434 334.541,308.181 370.749,546.565c9.69,64.965 6.63,199.19 -6.12,260.397c-38.758,186.842 -141.262,350.059 -288.134,457.44c-236.627,173.419 -549.749,176.64 -789.945,7.517c-163.701,-114.897 -269.775,-289.39 -304.963,-499.855c-9.689,-59.596 -6.63,-210.465 6.12,-267.914c65.276,-304.96 291.703,-530.458 581.367,-580.39c58.647,-9.664 182.57,-7.517 239.686,5.369Z" style="fill:#6e2a1e;fill-rule:nonzero;"/><ellipse id="path17379" cx="1846.907" cy="831.043" rx="907.444" ry="815.461" style="fill:#6e2a1e;stroke:#000;stroke-opacity:0;stroke-width:31.17px;"/></g><g id="g11184"><g id="g11161"><ellipse id="ellipse9375" cx="1885.916" cy="964.563" rx="841.223" ry="809.628" style="fill:#622318;fill-opacity:0.98;stroke:#000;stroke-opacity:0.54;stroke-width:38.98px;"/><ellipse id="ellipse8734" cx="1885.916" cy="964.563" rx="718.004" ry="691.037" style="fill:#d8d1b7;stroke:#000;stroke-opacity:0.54;stroke-width:33.27px;"/></g><g id="g6215"><path id="path134" d="M1756.679,282.875c-139.423,26.709 -263.354,91.88 -364.316,192.307c-100.427,99.893 -162.393,214.209 -192.842,356.837c-14.423,65.171 -12.82,201.923 2.671,274.572c29.38,135.684 90.812,247.329 192.842,348.824c100.427,99.893 226.495,165.064 365.918,189.636c55.021,9.081 160.79,10.684 220.085,2.137c253.205,-35.256 475.961,-224.893 554.486,-473.29c42.735,-136.752 41.667,-298.611 -3.205,-431.089c-75.855,-224.359 -261.752,-393.162 -498.397,-452.991c-58.226,-14.423 -215.812,-18.162 -277.243,-6.944Zm160.79,7.479c31.517,14.423 51.816,47.008 51.816,82.799c0,31.517 -10.15,55.021 -19.765,47.008c-3.739,-3.205 -15.491,-4.808 -26.175,-4.273c-11.218,1.068 -20.299,0.534 -20.299,-1.068c0,-1.603 9.615,-12.82 21.367,-25.641c23.504,-25.107 27.778,-48.077 12.82,-63.034c-8.547,-8.547 -26.709,-11.218 -41.667,-5.342c-15.491,5.876 -9.081,12.286 9.081,9.081c38.996,-5.876 39.53,27.244 1.068,65.705c-13.355,12.82 -24.038,25.107 -24.038,26.175c0,1.603 15.491,2.671 34.722,2.671c19.231,0 34.722,2.137 34.722,4.808c0,9.615 -34.188,31.517 -54.487,35.256c-29.914,5.876 -55.555,-1.068 -77.457,-20.299c-33.654,-29.914 -42.735,-71.581 -23.504,-109.508c12.286,-24.038 24.573,-35.256 48.611,-45.94c25.107,-10.684 46.474,-10.15 73.184,1.603Zm-101.496,5.876c-27.244,21.367 -37.393,45.406 -34.722,82.265c2.137,37.393 18.162,65.171 47.543,82.799l15.491,9.615l-52.35,9.081c-158.119,27.778 -289.529,129.273 -359.508,277.777c-22.97,49.679 -42.201,116.453 -42.201,147.97c0,11.218 -2.137,21.902 -5.342,23.504c-2.671,1.603 -5.342,-0.534 -5.342,-4.808c0,-4.808 -9.081,-17.628 -20.833,-29.38c-39.53,-39.53 -97.222,-40.598 -139.957,-2.137c-24.038,21.902 -24.038,21.902 -12.82,-44.338c36.325,-212.606 175.213,-398.504 370.192,-495.726c68.91,-34.188 176.816,-65.705 230.235,-66.773l23.504,-0.534l-13.889,10.684Zm245.726,11.218c115.919,32.585 204.594,83.867 292.2,169.337c111.111,108.44 179.487,243.055 200.854,395.833c3.205,21.902 4.808,40.598 3.739,41.667c-1.603,1.068 -6.41,-4.273 -11.218,-11.752c-13.355,-20.299 -49.679,-36.859 -81.196,-36.859c-33.12,0 -66.239,19.231 -83.867,49.145l-11.218,19.231l-6.41,-40.064c-8.013,-51.816 -16.026,-80.128 -34.722,-123.931c-65.171,-153.846 -212.072,-267.628 -379.273,-292.735l-43.269,-6.944l19.765,-9.615c27.244,-14.423 50.748,-52.885 50.748,-83.867c0,-30.449 -14.957,-64.102 -35.256,-80.662l-15.491,-12.286l38.996,3.739c21.367,2.137 64.637,11.218 95.62,19.765Zm-103.632,178.419c158.119,27.778 297.008,134.081 362.179,277.777c32.051,71.581 39.53,108.974 38.996,202.991c0,76.923 -1.603,90.278 -14.423,132.478c-26.175,84.936 -66.773,151.175 -130.876,214.743c-139.957,138.354 -356.837,174.679 -538.995,90.812c-138.889,-64.102 -238.782,-189.102 -271.901,-340.811c-11.218,-50.748 -11.218,-149.572 -0.534,-199.786c55.555,-253.739 302.884,-422.542 555.555,-378.205Zm-628.204,395.833c53.953,26.175 66.773,106.837 23.504,148.504c-21.367,20.299 -49.145,28.846 -78.526,24.573c-27.778,-4.273 -47.543,-17.628 -65.171,-43.269c-10.684,-15.491 -12.286,-23.504 -10.684,-50.214c2.137,-36.325 16.026,-60.897 43.803,-77.991c20.833,-12.82 61.966,-13.355 87.073,-1.603Zm1180.554,0c58.761,28.312 66.773,114.85 14.423,155.448c-38.461,29.38 -86.004,26.175 -120.192,-8.547c-35.791,-35.791 -39.53,-82.265 -9.081,-120.726c26.709,-33.654 74.786,-44.872 114.85,-26.175Zm-1118.054,159.188c4.273,40.598 30.983,119.658 52.35,158.119c80.662,142.094 219.017,236.111 374.999,254.273l31.517,3.739l-15.491,8.013c-22.97,11.218 -34.188,22.436 -45.406,44.872c-19.765,38.996 -9.615,91.88 22.97,119.658c9.081,6.944 15.491,14.423 13.889,15.491c-3.739,3.739 -74.252,-7.479 -119.124,-19.231c-254.807,-65.171 -449.251,-272.97 -499.999,-534.721c-5.342,-28.846 -10.15,-57.692 -10.15,-64.102c0,-10.684 1.068,-10.684 17.628,5.342c44.338,42.735 103.098,43.269 144.231,0c10.684,-11.218 19.765,-25.107 19.765,-29.914c0.534,-19.765 9.081,6.944 12.82,38.461Zm1001.601,-11.752c36.325,44.872 102.564,46.474 145.299,3.739l21.367,-21.367l-3.739,28.312c-27.778,231.303 -168.803,432.692 -373.397,535.256c-73.718,36.859 -142.628,57.158 -236.645,69.444l-22.436,3.205l20.833,-20.833c48.611,-48.611 41.132,-119.658 -16.56,-157.051l-20.299,-12.82l27.778,-3.739c224.893,-28.846 403.845,-207.265 429.486,-427.884c3.205,-26.175 4.808,-29.914 9.615,-21.902c3.205,5.342 11.752,17.094 18.697,25.641Zm-474.892,443.375c41.132,20.833 59.829,61.966 48.611,104.701c-19.231,69.979 -99.893,93.483 -152.243,44.872c-38.461,-36.325 -39.53,-99.359 -2.671,-132.478c34.188,-30.983 68.376,-36.325 106.303,-17.094Z" style="fill:#7e6646;fill-rule:nonzero;"/><path id="path136" d="M1821.85,324.008c-17.094,5.876 -20.833,17.628 -4.273,12.286c10.15,-3.205 10.684,-1.068 10.684,42.201c0,27.244 2.137,45.94 5.342,45.94c3.205,0 5.342,-21.367 5.342,-53.419c0,-29.38 -0.534,-53.419 -1.068,-52.885c-1.068,0 -8.013,2.671 -16.026,5.876Z" style="fill:#7f6846;fill-rule:nonzero;stroke:#000;stroke-opacity:0;stroke-width:0.53px;stroke-linejoin:miter;stroke-miterlimit:4;"/><path id="path138" d="M1555.824,416.956c0,9.615 51.282,86.538 55.021,82.799c5.876,-5.876 -38.996,-85.47 -48.077,-86.004c-3.739,0 -6.944,1.603 -6.944,3.205Z" style="fill:#7f6846;fill-rule:nonzero;stroke:#000;stroke-opacity:0;stroke-width:0.53px;stroke-linejoin:miter;stroke-miterlimit:4;"/><path id="path140" d="M1326.124,647.725c0,4.808 80.128,54.487 88.141,54.487c1.603,0 2.671,-3.205 2.671,-6.944c0,-3.205 -17.628,-16.026 -38.996,-27.778c-43.269,-24.038 -51.816,-27.244 -51.816,-19.765Z" style="fill:#7f6846;fill-rule:nonzero;stroke:#000;stroke-opacity:0;stroke-width:0.53px;stroke-linejoin:miter;stroke-miterlimit:4;"/><path id="path142" d="M2165.332,453.815c-12.286,21.902 -20.833,42.735 -19.231,45.94c3.739,5.876 7.479,0.534 39.53,-55.555c11.752,-20.833 14.957,-30.449 10.15,-30.449c-4.273,0 -17.628,18.162 -30.449,40.064Z" style="fill:#7f6846;fill-rule:nonzero;stroke:#000;stroke-opacity:0;stroke-width:0.53px;stroke-linejoin:miter;stroke-miterlimit:4;"/><path id="path144" d="M2382.746,664.285c-22.97,13.355 -41.667,27.778 -41.667,31.517c0,5.342 6.944,3.205 22.97,-5.876c12.286,-7.479 32.585,-18.697 45.406,-25.107c21.367,-11.218 27.244,-18.162 18.697,-22.97c-2.671,-1.068 -22.97,9.081 -45.406,22.436Z" style="fill:#7f6846;fill-rule:nonzero;stroke:#000;stroke-opacity:0;stroke-width:0.53px;stroke-linejoin:miter;stroke-miterlimit:4;"/><path id="path148" d="M1263.09,922.832c-14.423,15.491 -14.957,32.585 -1.068,46.474c11.752,11.752 22.436,13.355 37.927,5.342c5.342,-3.205 10.15,-3.739 10.15,-1.603c0,10.15 -18.162,28.846 -33.654,35.791l-17.094,7.479l14.423,0.534c8.013,0.534 20.833,-4.808 28.846,-11.752c19.231,-16.56 25.107,-67.308 10.15,-83.867c-12.82,-14.423 -35.791,-13.355 -49.679,1.603Zm37.393,2.137c18.697,16.56 9.081,44.338 -15.491,44.338c-11.218,0 -22.97,-13.355 -22.97,-26.175c0,-6.41 19.231,-27.244 25.107,-27.244c1.603,0 8.013,3.739 13.355,9.081Z" style="fill:#7f6846;fill-rule:nonzero;stroke:#000;stroke-opacity:0;stroke-width:0.53px;stroke-linejoin:miter;stroke-miterlimit:4;"/><path id="path150" d="M2447.917,915.887c-5.876,4.273 -3.739,5.342 9.081,4.273c21.902,-1.603 35.256,9.081 27.778,22.97c-2.671,5.342 -9.615,10.15 -14.957,10.15c-17.094,0 -17.094,7.479 0.534,12.82c34.722,11.218 20.833,49.679 -15.491,42.735c-13.889,-2.671 -18.162,-2.137 -15.491,2.671c4.808,7.479 37.927,7.479 51.816,0.534c13.889,-7.479 13.355,-34.188 -0.534,-44.338c-10.684,-7.479 -10.684,-7.479 0,-17.094c11.218,-10.15 10.15,-27.778 -2.137,-35.791c-8.547,-5.876 -30.983,-4.808 -40.598,1.068Z" style="fill:#7f6846;fill-rule:nonzero;"/><path id="path152" d="M1367.791,1251.357c-38.996,22.97 -49.679,33.12 -35.791,33.12c4.273,0 76.389,-38.996 84.402,-46.474c1.603,-1.068 0,-3.739 -2.671,-6.41c-2.671,-2.671 -22.436,5.876 -45.94,19.765Z" style="fill:#7f6846;fill-rule:nonzero;stroke:#000;stroke-opacity:0;stroke-width:0.53px;stroke-linejoin:miter;stroke-miterlimit:4;"/><path id="path154" d="M1578.26,1469.839c-13.355,24.038 -20.299,43.269 -17.628,45.94c2.671,2.671 14.957,-13.355 29.38,-38.996c27.244,-49.145 27.244,-48.077 18.162,-48.077c-3.739,0.534 -17.094,18.697 -29.914,41.132Z" style="fill:#7f6846;fill-rule:nonzero;stroke:#000;stroke-opacity:0;stroke-width:0.53px;stroke-linejoin:miter;stroke-miterlimit:4;"/><path id="path156" d="M2341.08,1232.126c0,9.615 84.402,58.226 88.675,51.816c1.603,-3.205 2.137,-5.876 1.603,-6.944c-2.137,-1.068 -78.526,-45.406 -86.004,-49.679c-2.671,-1.068 -4.273,1.068 -4.273,4.808Z" style="fill:#7f6846;fill-rule:nonzero;stroke:#000;stroke-opacity:0;stroke-width:0.53px;stroke-linejoin:miter;stroke-miterlimit:4;"/><path id="path158" d="M2145.567,1427.104c-4.273,1.603 2.671,18.697 17.628,44.872c24.573,42.735 30.983,50.748 35.256,43.803c4.273,-6.944 -46.474,-90.812 -52.885,-88.675Z" style="fill:#7f6846;fill-rule:nonzero;stroke:#000;stroke-opacity:0;stroke-width:0.53px;stroke-linejoin:miter;stroke-miterlimit:4;"/><path id="path160" d="M1862.448,1515.779c-11.752,10.15 -14.957,18.162 -17.094,42.201c-2.137,25.107 -0.534,31.517 9.081,41.132c22.436,22.436 59.295,6.41 59.295,-25.107c0,-26.709 -34.722,-44.338 -52.35,-26.709c-4.808,4.808 -6.41,4.808 -6.41,-1.603c0,-10.15 17.094,-26.175 36.325,-35.256l14.423,-5.876l-14.423,-0.534c-8.013,-0.534 -20.833,4.808 -28.846,11.752Zm32.051,40.598c11.752,12.82 9.081,31.517 -4.808,41.132c-15.491,10.15 -34.722,-3.205 -34.722,-24.573c0,-24.573 23.504,-34.188 39.53,-16.56Z" style="fill:#7f6846;fill-rule:nonzero;stroke:#000;stroke-opacity:0;stroke-width:0.53px;stroke-linejoin:miter;stroke-miterlimit:4;"/><g id="g883"><animateTransform attributeName="transform" attributeType="XML" type="rotate" from="360 1885.916 964.563" to="0 1885.916 964.563" dur="20s" repeatCount="indefinite"/><path id="path9573" d="M1560.961,1217.96c10.818,-3.811 30.558,-9.551 44.018,-12.974c28.584,-7.141 53.668,-27.214 56.307,-45.184c1.086,-7.399 10.363,-22.775 21.365,-35.197c10.474,-12.5 24.086,-35.337 29.662,-51.256c8.777,-23.007 20.852,-39.052 63.169,-80.891c41.867,-42.445 55.201,-52.365 68.802,-53.068c13.601,-0.703 17.315,-3.937 18.79,-13.978c2.25,-15.327 -10.545,-27.464 -27.022,-25.564c-12.093,1.464 -24.501,-13.316 -48.573,-58.964c-7.573,-14.61 -21.707,-32.343 -31.952,-39.786c-9.717,-7.366 -17.46,-17.141 -16.762,-21.898c1.397,-9.513 -8.523,-22.848 -26.604,-35.761c-6.328,-4.709 -32.21,-12.288 -57.875,-17.676l-45.593,-9.394l14.715,43.194c16.891,46.753 36.203,73.345 56.816,76.372c7.399,1.086 25.044,9.616 39.284,19.266c13.712,9.572 37.995,20.696 53.54,25.139c30.717,7.75 54.893,26.957 52.875,40.698c-1.227,4.679 -25.967,33.441 -55.696,63.091c-45.503,45.151 -59.522,56.05 -85.774,65.693c-18.232,6.502 -40.115,19.486 -50.279,29.872c-10.164,10.386 -22.208,18.876 -26.514,18.783c-14.58,0.019 -37.395,19.345 -45.023,38.202c-7.55,18.328 -26.032,89.043 -23.234,88.374c1.135,-0.373 10.74,-3.282 21.558,-7.093Zm-2.34,-39.218c10.732,-39.998 21.686,-59.446 35.69,-66.568c18.62,-9.144 21.03,-7.171 17.538,16.613l-3.259,22.198l21.684,-0.596c17.301,-0.159 21.374,1.519 20.365,8.389c-2.483,16.913 -17.108,28.263 -50.463,38.483c-49.163,14.918 -50.671,14.157 -41.554,-18.519Zm60.191,-53.252c0.059,-15.109 11.841,-14.459 22.057,0.539c8.941,12.651 3.704,18.901 -11.841,14.459c-6.187,-1.988 -10.168,-7.972 -10.216,-14.998Zm34.306,-1.982c-2.022,-4.616 14.451,-24.874 47.288,-57.307c1.212,-0.902 3.326,-0.591 4.679,1.227c2.628,4.165 -16.158,36.501 -30.424,52.764c-10.319,11.443 -17.5,12.548 -21.544,3.316Zm-20.476,-18.664c-5.348,-4.025 -2.38,-9.528 13.005,-22.387c20.919,-17.445 40.673,-26.963 44.731,-21.508c2.255,3.031 -44.088,50.218 -48.844,49.519c-1.663,0.296 -5.581,-2.439 -8.893,-5.625Zm109.889,-244.644c-23.832,-10.518 -37.888,-28.779 -28.19,-35.994c4.849,-3.607 14.348,1.567 33.471,18.412c35.914,31.189 34.081,36.319 -5.281,17.582Zm3.366,-30.281c-9.639,-7.894 -17.305,-18.198 -16.684,-22.427c2.095,-14.27 21.17,-4.45 39.58,20.929c20.136,28.333 23.263,40.13 5.944,25.709c-5.721,-5.159 -18.75,-15.711 -28.84,-24.211Zm-94.483,-25.751c-12.16,-20.143 -26.516,-58.425 -25.119,-67.938c1.319,-8.985 64.882,3.048 83.942,16.645c23.507,16.409 23.23,29.327 -1.175,30.063c-20.627,0.751 -23.595,6.254 -18.398,29.694c2.894,13.383 1.682,14.285 -12.059,12.267c-10.57,-1.552 -18.779,-8.156 -27.191,-20.73Zm46.088,-1.332c1.475,-10.042 4.505,-12.296 15.076,-10.744c15.327,2.25 15.671,10.94 1.575,22.368c-12.355,10.604 -19.211,5.818 -16.65,-11.623Z" style="fill:#7f6846;fill-rule:nonzero;stroke:#000;stroke-opacity:0;stroke-width:0.53px;stroke-linejoin:miter;stroke-miterlimit:4;"/><path id="path9515" d="M2100.695,606.059c-10.15,5.342 -28.846,13.889 -41.667,19.231c-27.244,11.218 -49.145,34.722 -49.145,52.885c0,7.479 -6.944,24.038 -16.026,37.927c-8.547,13.889 -18.697,38.461 -21.902,55.021c-5.342,24.038 -14.957,41.667 -50.748,89.209c-35.256,48.077 -47.008,59.829 -60.363,62.5c-13.355,2.671 -16.56,6.41 -16.56,16.56c0,15.491 14.423,25.641 30.449,21.367c11.752,-3.205 26.175,9.615 56.624,51.282c9.615,13.355 26.175,28.846 37.393,34.722c10.684,5.876 19.765,14.423 19.765,19.231c0,9.615 11.752,21.367 31.517,31.517c6.944,3.739 33.654,7.479 59.829,9.081l46.474,2.671l-20.833,-40.598c-23.504,-43.803 -46.474,-67.308 -67.308,-67.308c-7.479,0 -26.175,-5.876 -41.667,-13.355c-14.957,-7.479 -40.598,-14.957 -56.624,-17.094c-31.517,-3.205 -58.226,-18.697 -58.226,-32.585c0.534,-4.808 20.833,-36.859 45.94,-70.513c38.461,-51.282 50.748,-64.102 75.32,-77.457c17.094,-9.081 36.859,-25.107 45.406,-36.859c8.547,-11.752 19.231,-21.902 23.504,-22.436c14.423,-2.137 34.188,-24.573 38.996,-44.338c4.808,-19.231 12.82,-91.88 10.15,-90.812c-1.068,0.534 -10.15,4.808 -20.299,10.15Zm8.013,38.461c-4.808,41.132 -12.82,61.966 -25.641,71.047c-17.094,11.752 -19.765,10.15 -19.765,-13.889l0,-22.436l-21.367,3.739c-17.094,2.671 -21.367,1.603 -21.367,-5.342c0,-17.094 12.82,-30.449 44.338,-45.406c46.474,-21.902 48.077,-21.367 43.803,12.286Zm-51.816,61.432c2.137,14.957 -9.615,16.026 -21.902,2.671c-10.684,-11.218 -6.41,-18.162 9.615,-16.026c6.41,1.068 11.218,6.41 12.286,13.355Zm-33.654,6.944c2.671,4.273 -10.684,26.709 -38.461,63.568c-1.068,1.068 -3.205,1.068 -4.808,-0.534c-3.205,-3.739 10.684,-38.461 22.436,-56.624c8.547,-12.82 15.491,-14.957 20.833,-6.41Zm22.97,15.491c5.876,3.205 3.739,9.081 -9.615,24.038c-18.162,20.299 -36.325,32.585 -41.132,27.778c-2.671,-2.671 36.325,-56.09 41.132,-56.09c1.603,-0.534 5.876,1.603 9.615,4.273Zm-73.184,258.012c25.107,6.944 41.667,22.97 33.12,31.517c-4.273,4.273 -14.423,0.534 -35.791,-13.355c-40.064,-25.641 -38.996,-30.983 2.671,-18.162Zm1.068,30.449c10.684,6.41 19.765,15.491 19.765,19.765c0,14.423 -20.299,7.479 -42.201,-14.957c-24.038,-25.107 -28.846,-36.325 -9.615,-24.573c6.41,4.273 20.833,12.82 32.051,19.765Zm97.222,11.752c14.957,18.162 34.722,53.953 34.722,63.568c0,9.081 -64.637,6.41 -85.47,-4.273c-25.641,-12.82 -27.244,-25.641 -3.205,-29.914c20.299,-3.739 22.436,-9.615 13.889,-32.051c-4.808,-12.82 -3.739,-13.889 10.15,-13.889c10.684,0 19.765,5.342 29.914,16.56Zm-45.406,8.013c0,10.15 -2.671,12.82 -13.355,12.82c-15.491,0 -17.094,-8.547 -4.808,-21.902c10.684,-12.286 18.162,-8.547 18.162,9.081Z" style="fill:#7f6846;fill-rule:nonzero;stroke:#000;stroke-opacity:0;stroke-width:0.53px;stroke-linejoin:miter;stroke-miterlimit:4;"/></g></g><g transform="matrix(3.682681,0,0,2.406368,-1535.041735,1562.49704)"><g transform="matrix(0.574936,0,0,1,339.281164,0)"><text x="798.188px" y="240.886px" style="font-family:'JetBrainsMono-Bold', 'JetBrains Mono';font-weight:700;font-size:39.507px;fill:#cb992e;fill-opacity:0.35;">Timeless</text></g><g transform="matrix(0.574936,0,0,1,391.417315,0)"><text x="920.843px" y="240.886px" style="font-family:'JetBrainsMono-Bold', 'JetBrains Mono';font-weight:700;font-size:64.54px;fill:#cb992e;fill-opacity:0.35;">.</text></g><g transform="matrix(0.574936,0,0,1,400.880801,0)"><g transform="matrix(39.506756,0,0,39.506756,1180.147472,240.88605)"></g><text x="966.811px" y="240.886px" style="font-family:'JetBrainsMono-Bold', 'JetBrains Mono';font-weight:700;font-size:39.507px;fill:#cb992e;fill-opacity:0.35;">Placeless</text></g></g><ellipse id="ellipse20016" cx="1866.602" cy="976.319" rx="888.227" ry="911.655" style="fill:none;stroke:#450d05;stroke-opacity:0.41;stroke-width:93.28px;"/><ellipse id="path17386" cx="1866.602" cy="951.937" rx="851.351" ry="835.808" style="fill:none;stroke:#6e2a1e;stroke-width:159.06px;"/></g></g></g></svg>