<?xml version="1.0" encoding="utf-8"?>
<!-- Generator: Adobe Illustrator 22.0.1, SVG Export Plug-In . SVG Version: 6.00 Build 0)  -->
<svg version="1.1" id="Layer_1" xmlns="http://www.w3.org/2000/svg" xmlns:xlink="http://www.w3.org/1999/xlink" x="0px" y="0px"
	 viewBox="0 0 64 64" style="enable-background:new 0 0 64 64;" xml:space="preserve">
<path d="M17.2,25.2c-0.6-0.4-1.1-0.6-1.7-0.6H13v14.9h2.5c0.6,0,1.1-0.2,1.7-0.6c0.6-0.4,0.8-1,0.8-1.9V27
	C18,26.2,17.7,25.6,17.2,25.2L17.2,25.2z M57.7,0H6.3C2.8,0,0,2.8,0,6.3v51.5C0,61.2,2.8,64,6.3,64h51.5c3.5,0,6.3-2.8,6.3-6.3V6.3
	C64,2.8,61.2,0,57.7,0z M22,37c0,2.7-1.7,6.8-6.9,6.8H8.5V20.1h6.8c5.1,0,6.8,4.1,6.8,6.8L22,37L22,37z M36.4,24.4h-7.6v5.5h4.7v4.2
	h-4.7v5.5h7.6v4.2h-8.9c-1.6,0-2.9-1.2-3-2.8V23.1c0-1.6,1.2-2.9,2.8-3h9L36.4,24.4L36.4,24.4z M51.2,40.8c-1.9,4.4-5.3,3.5-6.8,0
	l-5.5-20.7h4.7l4.2,16.2l4.2-16.2h4.7L51.2,40.8L51.2,40.8z"/>
</svg>
