<svg xmlns="http://www.w3.org/2000/svg" version="1.1" xmlns:xlink="http://www.w3.org/1999/xlink" xmlns:svgjs="http://svgjs.com/svgjs" width="325.34705mm" height="193.76031mm"><svg width="325.34705mm" height="193.76031mm" viewBox="0 0 325.34705 193.76031" version="1.1" id="SvgjsSvg1042" xml:space="preserve" inkscape:version="1.2 (dc2aeda, 2022-05-15)" sodipodi:docname="mantelpiece_clock.svg" xmlns:inkscape="http://www.inkscape.org/namespaces/inkscape" xmlns:sodipodi="http://sodipodi.sourceforge.net/DTD/sodipodi-0.dtd" xmlns="http://www.w3.org/2000/svg" xmlns:svg="http://www.w3.org/2000/svg"><sodipodi:namedview id="SvgjsSodipodi:namedview1041" pagecolor="#505050" bordercolor="#ffffff" borderopacity="1" inkscape:showpageshadow="0" inkscape:pageopacity="0" inkscape:pagecheckerboard="1" inkscape:deskcolor="#505050" inkscape:document-units="mm" showgrid="false" inkscape:zoom="0.45048352" inkscape:cx="1370.7494" inkscape:cy="-9.9892666" inkscape:window-width="1920" inkscape:window-height="1027" inkscape:window-x="0" inkscape:window-y="25" inkscape:window-maximized="1" inkscape:current-layer="g11184"></sodipodi:namedview><defs id="SvgjsDefs1040"><rect x="897.17084" y="823.68311" width="1130.0887" height="123.22333" id="SvgjsRect1039"></rect><rect x="897.17084" y="823.68311" width="1130.0887" height="123.22333" id="SvgjsRect1038"></rect></defs><g inkscape:label="Layer 1" inkscape:groupmode="layer" id="SvgjsG1037" transform="translate(-276.66566,4.3441337)"><g transform="matrix(0.03527778,0,0,-0.03527778,193.98389,165.14255)" fill="#000000" stroke="none" id="SvgjsG1036"><g id="SvgjsG1035" transform="matrix(1.0728181,0,0,1.0728181,3388.6842,35.031466)" inkscape:export-filename="mantelpiece_clock_factory.svg" inkscape:export-xdpi="96" inkscape:export-ydpi="96"><path d="m 3113.9672,4410.3681 c -729.0762,-79.8794 -1361.024,-529.994 -1684.3747,-1198.1918 -125.4061,-259.9252 -188.109,-481.8125 -216.3869,-769.6321 l -15.9832,-149.6155 H 943.95149 c -185.65005,0 -272.94243,-5.0715 -325.80967,-19.0189 -297.53188,-78.6116 -497.93559,-341.0725 -497.93559,-651.7149 0,-109.0416 -31.966227,-281.4798 -73.768226,-393.0576 C -34.707061,1014.8576 -172.40776,847.49119 -415.84293,675.05296 -656.81918,503.88272 -751.4884,402.4485 -849.84604,210.99142 -948.2037,19.534329 -974.02258,-113.59808 -974.02258,-441.99135 V -674.02213 H 3324.2067 7622.4356 l -4.9178,282.74788 c -6.1473,259.92519 -8.6063,290.35545 -39.3431,395.593446 -56.5555,195.260884 -168.4374,380.378314 -304.9087,507.171094 -35.6547,32.96611 -132.7828,107.77385 -215.1573,166.09852 -239.7468,171.17022 -366.3824,323.32159 -453.6746,541.40509 -45.4904,115.3815 -78.6862,287.8197 -78.6862,407.0048 -1.2294,252.3176 -143.848,489.4202 -357.776,594.6583 -129.0943,63.3963 -189.3383,72.2717 -470.8872,72.2717 h -249.5824 l -14.7538,148.3475 c -97.128,985.1801 -808.9915,1778.9026 -1743.3891,1943.7333 -162.2903,29.1623 -435.2327,40.5736 -575.3922,25.3586 z m 528.6722,-462.7936 c 149.9955,-31.6982 345.4813,-102.7022 461.0515,-167.3664 491.7883,-272.6045 806.5327,-727.7906 893.825,-1290.7505 23.3601,-153.4192 15.9833,-470.4013 -14.7535,-614.945 C 4889.3226,1433.2738 4642.1991,1047.8238 4288.1115,794.23814 3717.6373,384.69751 2962.7422,377.08996 2383.6616,776.48718 c -394.6602,271.33662 -650.39,683.41302 -735.2235,1180.44072 -23.3598,140.7398 -15.9831,497.0277 14.7538,632.6959 157.3721,720.1829 703.2571,1252.7127 1401.5963,1370.6299 141.3891,22.8226 440.1506,17.7509 577.8512,-12.6792 z" id="SvgjsPath1034" style="fill:#450b01;fill-opacity:1;stroke-width:1.24855"></path><path d="M 2929.2881,4292.9675 C 2233.1489,4217.5169 1629.7499,3792.359 1321.0069,3161.2091 1201.266,2915.6955 1141.3956,2706.1105 1114.3954,2434.249 l -15.2611,-141.3204 H 857.30497 c -177.26294,0 -260.61182,-4.7903 -311.09082,-17.9644 -284.09049,-74.2528 -475.440734,-322.1619 -475.440734,-615.5808 0,-102.9959 -30.522214,-265.8731 -70.43571275,-371.2646 C -77.14156,1085.7196 -208.6215,927.63316 -441.05923,764.75546 -671.14913,603.07564 -761.54157,507.26541 -855.45579,326.42351 -949.37005,145.58163 -974.02258,19.83076 -974.02258,-290.35491 V -509.52085 H 3130.0297 7234.0818 l -4.6955,267.07103 c -5.8696,245.5137531 -8.2177,274.256832 -37.5658,373.6599 -54.0007,184.4348 -160.8281,359.28853 -291.1343,479.05118 -34.0438,31.13856 -126.784,101.79852 -205.4374,156.88933 -228.9159,161.67988 -349.8303,305.39521 -433.1793,511.38701 -43.4353,108.9843 -75.1313,271.8617 -75.1313,384.4387 -1.1741,238.3281 -137.3495,462.2843 -341.6131,561.6876 -123.2624,59.8816 -180.785,68.2647 -449.6144,68.2647 h -238.3074 l -14.0873,140.1225 c -92.7401,930.557 -772.4445,1680.272 -1664.6296,1835.9641 -154.9586,27.5454 -415.5705,38.3239 -549.3983,23.9523 z m 504.7889,-437.1342 c 143.2193,-29.9406 329.8738,-97.0079 440.2231,-158.0868 469.5712,-257.4902 770.0965,-687.4388 853.4455,-1219.1856 22.3047,-144.9128 15.2612,-444.3198 -14.0871,-580.8494 C 4624.4401,1480.937 4388.4807,1116.8581 4050.3892,877.33246 3505.6865,490.49861 2784.8949,483.31277 2231.9749,860.56571 c -376.831,256.29239 -621.008,645.52149 -702.0089,1114.99139 -22.3047,132.937 -15.2611,469.4704 14.0869,597.6162 150.2631,680.2531 671.487,1183.2569 1338.2779,1294.6363 135.0019,21.5572 420.2663,16.7669 551.7462,-11.9763 z" id="SvgjsPath1033" style="fill:#701a0e;fill-opacity:1;stroke-width:1.18574"></path><path d="M 3050.5655,4306.8925 C 2374.0382,4231.2231 1787.6386,3804.8323 1487.5937,3171.8524 1371.2263,2925.6269 1313.0425,2715.4342 1286.8031,2442.7844 l -14.8312,-141.73 h -235.0164 c -172.26895,0 -253.26967,-4.8043 -302.32652,-18.0165 -276.08693,-74.4682 -462.04633,-323.096 -462.04633,-617.3657 0,-103.2947 -29.66231,-266.6439 -68.45134,-372.3409 C 128.83484,1090.3452 1.0590286,931.80007 -224.83032,768.45023 -448.43798,606.30162 -536.28383,510.21359 -627.55226,328.84734 -718.82067,147.4811 -742.77864,21.365617 -742.77864,-289.71945 v -219.8014 H 3245.6515 7234.0818 l -4.5634,267.84541 c -5.7043,246.2256151 -7.9861,275.052035 -36.5074,374.74331 -52.4793,184.96958 -156.2971,360.33031 -282.9322,480.44022 -33.0847,31.22883 -123.2123,102.09367 -199.6496,157.34423 -222.4668,162.14862 -339.9748,306.28078 -420.9757,512.86998 -42.2115,109.3002 -73.0147,272.6499 -73.0147,385.5533 -1.1408,239.0192 -133.4799,463.6248 -331.9887,563.3161 -119.79,60.055 -175.692,68.4627 -436.9478,68.4627 h -231.5935 l -13.6904,140.5288 c -90.1275,933.2551 -750.6828,1685.1439 -1617.7326,1841.2875 -150.5931,27.6252 -403.8629,38.4348 -533.9203,24.0218 z m 490.5677,-438.4019 c 139.1842,-30.0274 320.5803,-97.2891 427.8208,-158.5451 456.342,-258.2367 748.4008,-689.4318 829.4015,-1222.7205 21.6764,-145.3331 14.8312,-445.6082 -13.6901,-582.5337 C 4697.9605,1486.7083 4468.6485,1121.5738 4140.0821,881.35365 3610.7252,493.39818 2910.2402,486.1915 2372.8973,864.53835 2006.6827,1121.5738 1769.3849,1511.9315 1690.6658,1982.7627 c -21.6762,133.3224 -14.8311,470.8315 13.6902,599.3491 146.0296,682.2254 652.5693,1186.6877 1300.575,1298.3899 131.1986,21.6198 408.4263,16.8155 536.2022,-12.0111 z" id="SvgjsPath1032" style="fill:#5a1609;fill-opacity:1;stroke-width:1.17059"></path><ellipse style="fill:#5a1609;fill-opacity:1;stroke:#000000;stroke-width:69.721;stroke-linejoin:round;stroke-miterlimit:1.4;stroke-opacity:0;paint-order:markers stroke fill" id="SvgjsEllipse1031" cx="3157.6904" cy="-2586.4692" transform="scale(1,-1)" rx="2030.0428" ry="1824.2656"></ellipse></g><g id="SvgjsG1030" transform="matrix(1.0897633,0,0,1.0897633,-435.95178,-201.64513)"><g id="SvgjsG1029" transform="matrix(1.074049,0,0,1.074049,3026.2246,0.27289792)"><ellipse style="fill:#440704;fill-opacity:1;stroke:#000000;stroke-width:79.9297;stroke-linejoin:round;stroke-miterlimit:1.4;stroke-opacity:0;paint-order:markers stroke fill" id="SvgjsEllipse1028" cx="3424.311" cy="-2298.8794" transform="scale(1,-1)" rx="1724.9081" ry="1660.1232"></ellipse><ellipse style="fill:#d8d1b7;fill-opacity:1;stroke:#000000;stroke-width:68.2219;stroke-linejoin:round;stroke-miterlimit:1.4;stroke-opacity:0;paint-order:markers stroke fill" id="SvgjsEllipse1027" cx="3424.311" cy="-2298.8794" transform="scale(1,-1)" rx="1472.2504" ry="1416.955"></ellipse></g><g id="SvgjsG1026" transform="matrix(1.1764473,0,0,1.1764473,2588.9695,-235.12881)"><path d="m 3256,3575 c -261,-50 -493,-172 -682,-360 -188,-187 -304,-401 -361,-668 -27,-122 -24,-378 5,-514 55,-254 170,-463 361,-653 188,-187 424,-309 685,-355 103,-17 301,-20 412,-4 474,66 891,421 1038,886 80,256 78,559 -6,807 -142,420 -490,736 -933,848 -109,27 -404,34 -519,13 z m 301,-14 c 59,-27 97,-88 97,-155 0,-59 -19,-103 -37,-88 -7,6 -29,9 -49,8 -21,-2 -38,-1 -38,2 0,3 18,24 40,48 44,47 52,90 24,118 -16,16 -50,21 -78,10 -29,-11 -17,-23 17,-17 73,11 74,-51 2,-123 -25,-24 -45,-47 -45,-49 0,-3 29,-5 65,-5 36,0 65,-4 65,-9 0,-18 -64,-59 -102,-66 -56,-11 -104,2 -145,38 -63,56 -80,134 -44,205 23,45 46,66 91,86 47,20 87,19 137,-3 z m -190,-11 c -51,-40 -70,-85 -65,-154 4,-70 34,-122 89,-155 l 29,-18 -98,-17 c -296,-52 -542,-242 -673,-520 -43,-93 -79,-218 -79,-277 0,-21 -4,-41 -10,-44 -5,-3 -10,1 -10,9 0,9 -17,33 -39,55 -74,74 -182,76 -262,4 -45,-41 -45,-41 -24,83 68,398 328,746 693,928 129,64 331,123 431,125 l 44,1 z m 460,-21 c 217,-61 383,-157 547,-317 208,-203 336,-455 376,-741 6,-41 9,-76 7,-78 -3,-2 -12,8 -21,22 -25,38 -93,69 -152,69 -62,0 -124,-36 -157,-92 l -21,-36 -12,75 c -15,97 -30,150 -65,232 -122,288 -397,501 -710,548 l -81,13 37,18 c 51,27 95,99 95,157 0,57 -28,120 -66,151 l -29,23 73,-7 c 40,-4 121,-21 179,-37 z m -194,-334 c 296,-52 556,-251 678,-520 60,-134 74,-204 73,-380 0,-144 -3,-169 -27,-248 -49,-159 -125,-283 -245,-402 -262,-259 -668,-327 -1009,-170 -260,120 -447,354 -509,638 -21,95 -21,280 -1,374 104,475 567,791 1040,708 z M 2457,2454 c 101,-49 125,-200 44,-278 -40,-38 -92,-54 -147,-46 -52,8 -89,33 -122,81 -20,29 -23,44 -20,94 4,68 30,114 82,146 39,24 116,25 163,3 z m 2210,0 c 110,-53 125,-215 27,-291 -72,-55 -161,-49 -225,16 -67,67 -74,154 -17,226 50,63 140,84 215,49 z M 2574,2156 c 8,-76 58,-224 98,-296 151,-266 410,-442 702,-476 l 59,-7 -29,-15 c -43,-21 -64,-42 -85,-84 -37,-73 -18,-172 43,-224 17,-13 29,-27 26,-29 -7,-7 -139,14 -223,36 -477,122 -841,511 -936,1001 -10,54 -19,108 -19,120 0,20 2,20 33,-10 83,-80 193,-81 270,0 20,21 37,47 37,56 1,37 17,-13 24,-72 z m 1875,22 c 68,-84 192,-87 272,-7 l 40,40 -7,-53 c -52,-433 -316,-810 -699,-1002 -138,-69 -267,-107 -443,-130 l -42,-6 39,39 c 91,91 77,224 -31,294 l -38,24 52,7 c 421,54 756,388 804,801 6,49 9,56 18,41 6,-10 22,-32 35,-48 z m -889,-830 c 77,-39 112,-116 91,-196 -36,-131 -187,-175 -285,-84 -72,68 -74,186 -5,248 64,58 128,68 199,32 z" id="SvgjsPath1025" style="fill:#7e6646;fill-opacity:1"></path><path d="m 3378,3498 c -32,-11 -39,-33 -8,-23 19,6 20,2 20,-79 0,-51 4,-86 10,-86 6,0 10,40 10,100 0,55 -1,100 -2,99 -2,0 -15,-5 -30,-11 z" id="SvgjsPath1024" style="fill:#7f6846;fill-opacity:1;stroke:#000000;stroke-opacity:0"></path><path d="m 2880,3324 c 0,-18 96,-162 103,-155 11,11 -73,160 -90,161 -7,0 -13,-3 -13,-6 z" id="SvgjsPath1023" style="fill:#7f6846;fill-opacity:1;stroke:#000000;stroke-opacity:0"></path><path d="m 2450,2892 c 0,-9 150,-102 165,-102 3,0 5,6 5,13 0,6 -33,30 -73,52 -81,45 -97,51 -97,37 z" id="SvgjsPath1022" style="fill:#7f6846;fill-opacity:1;stroke:#000000;stroke-opacity:0"></path><path d="m 4021,3255 c -23,-41 -39,-80 -36,-86 7,-11 14,-1 74,104 22,39 28,57 19,57 -8,0 -33,-34 -57,-75 z" id="SvgjsPath1021" style="fill:#7f6846;fill-opacity:1;stroke:#000000;stroke-opacity:0"></path><path d="m 4428,2861 c -43,-25 -78,-52 -78,-59 0,-10 13,-6 43,11 23,14 61,35 85,47 40,21 51,34 35,43 -5,2 -43,-17 -85,-42 z" id="SvgjsPath1020" style="fill:#7f6846;fill-opacity:1;stroke:#000000;stroke-opacity:0"></path><path d="m 3900,2970 c -19,-10 -54,-26 -78,-36 -51,-21 -92,-65 -92,-99 0,-14 -13,-45 -30,-71 -16,-26 -35,-72 -41,-103 -10,-45 -28,-78 -95,-167 -66,-90 -88,-112 -113,-117 -25,-5 -31,-12 -31,-31 0,-29 27,-48 57,-40 22,6 49,-18 106,-96 18,-25 49,-54 70,-65 20,-11 37,-27 37,-36 0,-18 22,-40 59,-59 13,-7 63,-14 112,-17 l 87,-5 -39,76 c -44,82 -87,126 -126,126 -14,0 -49,11 -78,25 -28,14 -76,28 -106,32 -59,6 -109,35 -109,61 1,9 39,69 86,132 72,96 95,120 141,145 32,17 69,47 85,69 16,22 36,41 44,42 27,4 64,46 73,83 9,36 24,172 19,170 -2,-1 -19,-9 -38,-19 z m 15,-72 c -9,-77 -24,-116 -48,-133 -32,-22 -37,-19 -37,26 v 42 l -40,-7 c -32,-5 -40,-3 -40,10 0,32 24,57 83,85 87,41 90,40 82,-23 z m -97,-115 c 4,-28 -18,-30 -41,-5 -20,21 -12,34 18,30 12,-2 21,-12 23,-25 z m -63,-13 c 5,-8 -20,-50 -72,-119 -2,-2 -6,-2 -9,1 -6,7 20,72 42,106 16,24 29,28 39,12 z m 43,-29 c 11,-6 7,-17 -18,-45 -34,-38 -68,-61 -77,-52 -5,5 68,105 77,105 3,1 11,-3 18,-8 z m -137,-483 c 47,-13 78,-43 62,-59 -8,-8 -27,-1 -67,25 -75,48 -73,58 5,34 z m 2,-57 c 20,-12 37,-29 37,-37 0,-27 -38,-14 -79,28 -45,47 -54,68 -18,46 12,-8 39,-24 60,-37 z m 182,-22 c 28,-34 65,-101 65,-119 0,-17 -121,-12 -160,8 -48,24 -51,48 -6,56 38,7 42,18 26,60 -9,24 -7,26 19,26 20,0 37,-10 56,-31 z m -85,-15 c 0,-19 -5,-24 -25,-24 -29,0 -32,16 -9,41 20,23 34,16 34,-17 z" id="SvgjsPath1019" style="fill:#7f6846;fill-opacity:1;stroke:#000000;stroke-opacity:0"></path><path d="m 2332,2377 c -27,-29 -28,-61 -2,-87 22,-22 42,-25 71,-10 10,6 19,7 19,3 0,-19 -34,-54 -63,-67 l -32,-14 27,-1 c 15,-1 39,9 54,22 36,31 47,126 19,157 -24,27 -67,25 -93,-3 z m 70,-4 c 35,-31 17,-83 -29,-83 -21,0 -43,25 -43,49 0,12 36,51 47,51 3,0 15,-7 25,-17 z" id="SvgjsPath1018" style="fill:#7f6846;fill-opacity:1;stroke:#000000;stroke-opacity:0"></path><path d="m 4550,2390 c -11,-8 -7,-10 17,-8 41,3 66,-17 52,-43 -5,-10 -18,-19 -28,-19 -32,0 -32,-14 1,-24 65,-21 39,-93 -29,-80 -26,5 -34,4 -29,-5 9,-14 71,-14 97,-1 26,14 25,64 -1,83 -20,14 -20,14 0,32 21,19 19,52 -4,67 -16,11 -58,9 -76,-2 z" id="SvgjsPath1017" style="fill:#7f6846;fill-opacity:1"></path><path d="m 2528,1762 c -73,-43 -93,-62 -67,-62 8,0 143,73 158,87 3,2 0,7 -5,12 -5,5 -42,-11 -86,-37 z" id="SvgjsPath1016" style="fill:#7f6846;fill-opacity:1;stroke:#000000;stroke-opacity:0"></path><path d="m 2922,1353 c -25,-45 -38,-81 -33,-86 5,-5 28,25 55,73 51,92 51,90 34,90 -7,-1 -32,-35 -56,-77 z" id="SvgjsPath1015" style="fill:#7f6846;fill-opacity:1;stroke:#000000;stroke-opacity:0"></path><path d="m 4350,1798 c 0,-18 158,-109 166,-97 3,6 4,11 3,13 -4,2 -147,85 -161,93 -5,2 -8,-2 -8,-9 z" id="SvgjsPath1014" style="fill:#7f6846;fill-opacity:1;stroke:#000000;stroke-opacity:0"></path><path d="m 3984,1433 c -8,-3 5,-35 33,-84 46,-80 58,-95 66,-82 8,13 -87,170 -99,166 z" id="SvgjsPath1013" style="fill:#7f6846;fill-opacity:1;stroke:#000000;stroke-opacity:0"></path><path d="m 3454,1267 c -22,-19 -28,-34 -32,-79 -4,-47 -1,-59 17,-77 42,-42 111,-12 111,47 0,50 -65,83 -98,50 -9,-9 -12,-9 -12,3 0,19 32,49 68,66 l 27,11 -27,1 c -15,1 -39,-9 -54,-22 z m 60,-76 c 22,-24 17,-59 -9,-77 -29,-19 -65,6 -65,46 0,46 44,64 74,31 z" id="SvgjsPath1012" style="fill:#7f6846;fill-opacity:1;stroke:#000000;stroke-opacity:0"></path><path d="m 3900,2970 c -19,-10 -54,-26 -78,-36 -51,-21 -92,-65 -92,-99 0,-14 -13,-45 -30,-71 -16,-26 -35,-72 -41,-103 -10,-45 -28,-78 -95,-167 -66,-90 -88,-112 -113,-117 -25,-5 -31,-12 -31,-31 0,-29 27,-48 57,-40 22,6 49,-18 106,-96 18,-25 49,-54 70,-65 20,-11 37,-27 37,-36 0,-18 22,-40 59,-59 13,-7 63,-14 112,-17 l 87,-5 -39,76 c -44,82 -87,126 -126,126 -14,0 -49,11 -78,25 -28,14 -76,28 -106,32 -59,6 -109,35 -109,61 1,9 39,69 86,132 72,96 95,120 141,145 32,17 69,47 85,69 16,22 36,41 44,42 27,4 64,46 73,83 9,36 24,172 19,170 -2,-1 -19,-9 -38,-19 z m 15,-72 c -9,-77 -24,-116 -48,-133 -32,-22 -37,-19 -37,26 v 42 l -40,-7 c -32,-5 -40,-3 -40,10 0,32 24,57 83,85 87,41 90,40 82,-23 z m -97,-115 c 4,-28 -18,-30 -41,-5 -20,21 -12,34 18,30 12,-2 21,-12 23,-25 z m -63,-13 c 5,-8 -20,-50 -72,-119 -2,-2 -6,-2 -9,1 -6,7 20,72 42,106 16,24 29,28 39,12 z m 43,-29 c 11,-6 7,-17 -18,-45 -34,-38 -68,-61 -77,-52 -5,5 68,105 77,105 3,1 11,-3 18,-8 z m -137,-483 c 47,-13 78,-43 62,-59 -8,-8 -27,-1 -67,25 -75,48 -73,58 5,34 z m 2,-57 c 20,-12 37,-29 37,-37 0,-27 -38,-14 -79,28 -45,47 -54,68 -18,46 12,-8 39,-24 60,-37 z m 182,-22 c 28,-34 65,-101 65,-119 0,-17 -121,-12 -160,8 -48,24 -51,48 -6,56 38,7 42,18 26,60 -9,24 -7,26 19,26 20,0 37,-10 56,-31 z m -85,-15 c 0,-19 -5,-24 -25,-24 -29,0 -32,16 -9,41 20,23 34,16 34,-17 z" id="SvgjsPath1011" style="fill:#7f6846;fill-opacity:1;stroke:#000000;stroke-opacity:0"></path><path d="m 3900,2970 c -19,-10 -54,-26 -78,-36 -51,-21 -92,-65 -92,-99 0,-14 -13,-45 -30,-71 -16,-26 -35,-72 -41,-103 -10,-45 -28,-78 -95,-167 -66,-90 -88,-112 -113,-117 -25,-5 -31,-12 -31,-31 0,-29 27,-48 57,-40 22,6 49,-18 106,-96 18,-25 49,-54 70,-65 20,-11 37,-27 37,-36 0,-18 22,-40 59,-59 13,-7 63,-14 112,-17 l 87,-5 -39,76 c -44,82 -87,126 -126,126 -14,0 -49,11 -78,25 -28,14 -76,28 -106,32 -59,6 -109,35 -109,61 1,9 39,69 86,132 72,96 95,120 141,145 32,17 69,47 85,69 16,22 36,41 44,42 27,4 64,46 73,83 9,36 24,172 19,170 -2,-1 -19,-9 -38,-19 z m 15,-72 c -9,-77 -24,-116 -48,-133 -32,-22 -37,-19 -37,26 v 42 l -40,-7 c -32,-5 -40,-3 -40,10 0,32 24,57 83,85 87,41 90,40 82,-23 z m -97,-115 c 4,-28 -18,-30 -41,-5 -20,21 -12,34 18,30 12,-2 21,-12 23,-25 z m -63,-13 c 5,-8 -20,-50 -72,-119 -2,-2 -6,-2 -9,1 -6,7 20,72 42,106 16,24 29,28 39,12 z m 43,-29 c 11,-6 7,-17 -18,-45 -34,-38 -68,-61 -77,-52 -5,5 68,105 77,105 3,1 11,-3 18,-8 z m -137,-483 c 47,-13 78,-43 62,-59 -8,-8 -27,-1 -67,25 -75,48 -73,58 5,34 z m 2,-57 c 20,-12 37,-29 37,-37 0,-27 -38,-14 -79,28 -45,47 -54,68 -18,46 12,-8 39,-24 60,-37 z m 182,-22 c 28,-34 65,-101 65,-119 0,-17 -121,-12 -160,8 -48,24 -51,48 -6,56 38,7 42,18 26,60 -9,24 -7,26 19,26 20,0 37,-10 56,-31 z m -85,-15 c 0,-19 -5,-24 -25,-24 -29,0 -32,16 -9,41 20,23 34,16 34,-17 z" id="SvgjsPath1010" style="fill:#7f6846;fill-opacity:1;stroke:#000000;stroke-opacity:0"></path><path d="m 2889.6165,1824.5181 c 20.2513,7.1337 57.2043,17.8795 82.4024,24.2868 53.5097,13.3684 100.4668,50.9454 105.4061,84.5848 2.0338,13.8515 19.3994,42.634 39.9961,65.8886 19.6074,23.3998 45.0883,66.1517 55.5281,95.9512 16.4312,43.0699 39.0343,73.1049 118.2527,151.4274 78.3744,79.4573 103.3371,98.0279 128.7981,99.3431 25.4613,1.3151 32.4145,7.3692 35.1747,26.1677 4.2129,28.6923 -19.7405,51.4131 -50.5844,47.8562 -22.6382,-2.7404 -45.8654,24.9274 -90.9294,110.3805 -14.1772,27.3496 -40.6354,60.5455 -59.8147,74.4795 -18.1898,13.7887 -32.6851,32.0886 -31.3776,40.9931 2.6149,17.8091 -15.9558,42.7718 -49.8031,66.9452 -11.8451,8.8144 -60.2979,23.0037 -108.3421,33.0902 l -85.3508,17.5857 27.5456,-80.8594 c 31.6209,-87.522 67.7727,-137.302 106.3589,-142.9677 13.8515,-2.0338 46.8822,-18.0016 73.5407,-36.0661 25.6693,-17.9191 71.1262,-38.7436 100.2269,-47.0594 57.5025,-14.5074 102.7592,-50.4634 98.982,-76.1876 -2.2969,-8.7592 -48.61,-62.6024 -104.2637,-118.1062 -85.1823,-84.522 -111.4249,-104.9261 -160.5687,-122.9784 -34.1301,-12.1709 -75.0958,-36.4775 -94.1221,-55.9198 -19.0263,-19.4423 -41.5743,-35.3352 -49.6347,-35.1624 -27.2947,-0.035 -70.0036,-36.2146 -84.2832,-71.5147 -14.1344,-34.3106 -48.7323,-166.6888 -43.4948,-165.4364 2.124,0.6989 20.1059,6.1444 40.357,13.2781 z m -4.3812,73.4153 c 20.0906,74.8757 40.597,111.2829 66.812,124.616 34.8566,17.1179 39.3677,13.4234 32.8305,-31.0993 l -6.1015,-41.5544 40.5926,1.1149 c 32.387,0.2982 40.0115,-2.8428 38.1229,-15.7049 -4.6487,-31.6605 -32.0259,-52.9088 -94.4677,-72.0407 -92.0332,-27.9263 -94.8561,-26.5011 -77.7888,34.6684 z m 112.6773,99.6886 c 0.1101,28.2841 22.1673,27.0669 41.2915,-1.0092 16.7371,-23.6827 6.9335,-35.3826 -22.1673,-27.0669 -11.5821,3.7221 -19.0339,14.9235 -19.1242,28.0761 z m 64.2203,3.7099 c -3.7848,8.6415 27.0515,46.5641 88.5237,107.278 2.2693,1.6883 6.2269,1.1072 8.7591,-2.2968 4.9195,-7.7974 -30.2474,-68.3308 -56.9533,-98.7741 -19.3168,-21.421 -32.76,-23.49 -40.3295,-6.2071 z m -38.3309,34.9391 c -10.0117,7.5343 -4.4561,17.8366 24.3462,41.9078 39.1598,32.6575 76.1403,50.4743 83.7374,40.2623 4.2206,-5.6733 -82.5323,-94.0076 -91.4368,-92.7001 -3.1135,-0.5537 -10.4474,4.5662 -16.6468,10.53 z m 205.7133,457.9738 c -44.6128,19.69 -70.9259,53.8751 -52.7712,67.381 9.0774,6.753 26.8589,-2.9329 62.6574,-34.4681 67.2313,-58.3862 63.7998,-67.9895 -9.8862,-32.9129 z m 6.3017,56.6858 c -18.0445,14.7783 -32.3946,34.0675 -31.2323,41.9826 3.9223,26.7136 39.6307,8.3312 74.0943,-39.1795 37.6947,-53.0386 43.5485,-75.1233 11.1265,-48.1269 -10.7106,9.6584 -35.0998,29.411 -53.9885,45.3238 z m -176.8732,48.2063 c -22.7637,37.707 -49.6379,109.3713 -47.023,127.1803 2.4696,16.8197 121.4596,-5.7053 157.1404,-31.1587 44.0043,-30.7185 43.486,-54.8997 -2.1989,-56.2775 -38.6138,-1.4054 -44.1693,-11.7076 -34.4406,-55.5865 5.418,-25.0528 3.1487,-26.7411 -22.5754,-22.9639 -19.7879,2.9053 -35.1549,15.2689 -50.9025,38.8063 z m 86.2773,2.4927 c 2.7603,18.7985 8.4335,23.019 28.2214,20.1136 28.6923,-4.2129 29.3361,-20.479 2.9483,-41.8725 -23.1291,-19.8506 -35.9636,-10.891 -31.1697,21.7589 z" id="SvgjsPath1009" style="fill:#7f6846;fill-opacity:1;stroke:#000000;stroke-opacity:0"></path></g><g id="SvgjsG1008" style="opacity:0.175385;fill:#7f6846;fill-opacity:1" transform="matrix(0.67329769,0,0,0.67329769,2189.6747,0.28915702)"><text xml:space="preserve" transform="matrix(3.3299523,0,0,-5.791866,1889.0769,5125.0174)" id="SvgjsText1007" style="font-size:96px;line-height:1.25;font-family:sans-serif;white-space:pre;shape-inside:url(#rect22970);display:inline;fill:#7f6846;fill-opacity:1" svgjs:data="{&quot;leading&quot;:&quot;1.3&quot;}"><tspan x="897.16992" y="911.2673" id="SvgjsTspan1006" svgjs:data="{&quot;leading&quot;:&quot;1.3&quot;}"><tspan style="font-family:monospace;-inkscape-font-specification:monospace" id="SvgjsTspan1005" svgjs:data="{&quot;leading&quot;:&quot;1.3&quot;}">Timeless, Placeless</tspan></tspan></text><text xml:space="preserve" transform="matrix(3.3299523,0,0,-5.791866,1915.4963,5107.9225)" id="SvgjsText1004" style="font-size:96px;line-height:1.25;font-family:sans-serif;white-space:pre;shape-inside:url(#rect24864);display:inline;opacity:0.266949;fill:#7f6846;fill-opacity:1" svgjs:data="{&quot;leading&quot;:&quot;1.3&quot;}"><tspan x="897.16992" y="911.2673" id="SvgjsTspan1003" svgjs:data="{&quot;leading&quot;:&quot;1.3&quot;}"><tspan style="font-family:monospace;-inkscape-font-specification:monospace" id="SvgjsTspan1002" svgjs:data="{&quot;leading&quot;:&quot;1.3&quot;}">Timeless, Placeless</tspan></tspan></text></g></g></g><ellipse style="fill:none;fill-opacity:1;stroke:#450d05;stroke-width:7.89807;stroke-linejoin:round;stroke-miterlimit:1.4;stroke-dasharray:none;stroke-opacity:1;paint-order:markers stroke fill" id="SvgjsEllipse1001" cx="434.70465" cy="78.317505" rx="75.203186" ry="77.186768"></ellipse><ellipse style="fill:none;fill-opacity:1;stroke:#5a1609;stroke-width:13.4671;stroke-linejoin:round;stroke-miterlimit:1.4;stroke-dasharray:none;stroke-opacity:1;paint-order:markers stroke fill" id="SvgjsEllipse1000" cx="434.70465" cy="76.25322" rx="72.081085" ry="70.765068"></ellipse></g></svg><style>@media (prefers-color-scheme: light) { :root { filter: none; } }
</style></svg>