<?xml version="1.0" standalone="no"?>
<!DOCTYPE svg PUBLIC "-//W3C//DTD SVG 20010904//EN"
 "http://www.w3.org/TR/2001/REC-SVG-20010904/DTD/svg10.dtd">
<svg version="1.0" xmlns="http://www.w3.org/2000/svg"
 width="1230.000000pt" height="1230.000000pt" viewBox="0 0 1230.000000 1230.000000"
 preserveAspectRatio="xMidYMid meet">
<metadata>
Created by potrace 1.14, written by Peter Selinger 2001-2017
</metadata>
<g transform="translate(0.000000,1230.000000) scale(0.100000,-0.100000)"
fill="#000000" stroke="none">
<path d="M5800 9759 c-511 -33 -884 -127 -1285 -324 -562 -277 -994 -700
-1255 -1230 -157 -317 -250 -687 -250 -995 0 -52 -9 -174 -20 -270 -11 -96
-20 -181 -20 -187 0 -10 -35 -13 -142 -13 -79 -1 -251 -7 -383 -15 -265 -15
-317 -26 -455 -95 -181 -91 -328 -244 -411 -425 -49 -108 -69 -199 -80 -360
-33 -490 -161 -793 -456 -1076 -54 -52 -141 -126 -193 -165 -52 -38 -149 -110
-215 -159 -278 -207 -457 -450 -560 -759 -59 -177 -67 -258 -72 -758 l-5 -448
6152 0 6152 0 -6 303 c-11 477 -24 581 -95 775 -119 322 -309 565 -620 792
-366 267 -513 415 -644 645 -121 214 -207 538 -207 784 0 38 -7 106 -15 152
-66 377 -327 670 -681 764 -70 19 -259 32 -597 41 -242 6 -247 7 -251 28 -3
11 -12 89 -20 173 -57 548 -225 1024 -517 1468 -123 187 -231 319 -398 486
-403 403 -858 661 -1401 794 -301 73 -662 99 -1050 74z m460 -838 c30 -4 -39
-5 -155 -3 -115 2 -214 5 -220 7 -20 7 321 3 375 -4z m-114 -44 c60 -30 108
-82 136 -146 26 -59 29 -179 5 -235 -17 -37 -18 -38 -54 -30 -21 5 -59 7 -85
6 -26 -1 -49 2 -52 7 -3 4 15 32 41 62 25 29 52 63 60 75 69 107 -6 205 -125
163 -45 -16 -29 -31 24 -23 59 9 94 -13 94 -59 -1 -44 -24 -84 -97 -165 l-62
-70 31 -6 c17 -3 60 -6 97 -6 36 0 72 -4 79 -8 22 -14 -23 -58 -95 -94 -294
-144 -567 218 -347 461 36 40 89 74 144 92 47 16 152 4 206 -24z m-296 19 c0
-3 -25 -28 -55 -56 -70 -67 -90 -118 -89 -225 1 -125 55 -225 151 -281 24 -15
42 -29 39 -31 -2 -3 -63 -16 -135 -29 -174 -32 -301 -73 -446 -145 -278 -137
-512 -359 -668 -633 -93 -162 -177 -409 -192 -557 -12 -119 -23 -137 -48 -76
-19 43 -107 124 -165 150 -104 46 -237 20 -341 -67 -24 -20 -49 -35 -55 -33
-15 5 -9 67 21 222 119 616 517 1172 1063 1485 260 148 643 271 873 278 26 1
47 0 47 -2z m547 -22 c345 -65 660 -201 911 -393 372 -283 644 -660 783 -1083
45 -136 86 -330 95 -444 l6 -79 -43 46 c-66 69 -136 101 -235 107 -72 4 -89 1
-136 -20 -68 -31 -119 -76 -153 -133 -14 -25 -29 -45 -33 -45 -4 0 -18 62 -30
137 -70 428 -292 785 -647 1037 -205 147 -409 229 -684 276 -62 11 -116 21
-118 24 -3 3 17 16 44 30 80 40 138 119 164 220 24 96 -25 232 -111 308 l-45
41 77 -7 c42 -4 112 -13 155 -22z m274 -28 c631 -173 1156 -604 1440 -1181
151 -308 218 -598 219 -940 0 -88 -5 -199 -10 -245 -91 -749 -554 -1393 -1244
-1731 -221 -108 -514 -197 -701 -214 -44 -4 -33 0 40 14 682 128 1266 575
1577 1206 151 307 218 609 218 979 0 257 -33 468 -110 699 -218 653 -747 1172
-1425 1397 -82 27 -145 49 -139 50 6 0 66 -15 135 -34z m-1741 -201 c-297
-169 -582 -438 -774 -729 -179 -272 -311 -646 -337 -955 -14 -159 -6 -449 16
-596 31 -208 92 -401 195 -610 209 -427 556 -779 985 -1002 136 -71 146 -82
22 -24 -403 186 -758 503 -985 881 -431 716 -413 1602 46 2296 210 316 489
569 832 753 136 73 135 63 0 -14z m1238 -376 c349 -38 667 -189 924 -437 60
-58 134 -139 165 -180 113 -150 214 -355 260 -530 24 -90 27 -116 31 -365 4
-299 0 -345 -54 -507 -153 -467 -532 -853 -987 -1005 -177 -59 -253 -70 -497
-69 -198 0 -236 3 -320 22 -296 71 -539 199 -744 393 -232 219 -401 525 -463
836 -22 112 -25 460 -4 573 34 191 132 425 252 602 127 187 378 407 578 507
272 137 570 192 859 160z m-1902 -1287 c108 -55 173 -201 145 -325 -32 -143
-139 -227 -291 -227 -97 0 -176 41 -235 122 -28 38 -46 74 -50 101 -8 54 10
169 35 216 19 38 81 100 121 121 59 32 205 28 275 -8z m3766 6 c173 -74 217
-340 77 -476 -89 -87 -221 -113 -322 -63 -61 29 -128 97 -159 158 -32 66 -32
169 0 234 74 151 247 215 404 147z m-3577 -489 c40 -236 125 -462 241 -637
100 -151 295 -349 434 -441 226 -150 472 -241 723 -266 37 -4 67 -11 67 -14 0
-4 -23 -18 -51 -31 -105 -49 -163 -147 -163 -275 -1 -71 3 -88 32 -148 21 -41
48 -79 73 -99 21 -17 39 -36 39 -41 0 -15 -129 -1 -271 28 -577 121 -1070 456
-1391 945 -179 274 -282 546 -343 909 -22 126 -17 133 47 76 118 -102 243
-128 359 -72 63 31 133 99 156 155 20 48 28 33 48 -89z m3205 24 c56 -72 142
-114 231 -114 101 0 168 30 256 114 24 23 45 39 47 36 7 -7 -23 -194 -50 -318
-120 -537 -460 -1033 -923 -1343 -214 -143 -503 -265 -751 -317 -76 -16 -288
-51 -308 -51 -2 0 21 27 52 61 31 33 65 78 77 100 72 141 26 306 -112 402 -30
21 -55 41 -57 45 -1 4 55 17 126 29 439 75 815 313 1062 674 136 198 214 399
255 653 19 115 23 126 42 100 7 -10 31 -42 53 -71z m-1562 -1409 c71 -23 140
-79 176 -144 27 -49 31 -64 31 -135 0 -67 -4 -89 -28 -137 -92 -188 -341 -223
-481 -68 -56 62 -78 120 -78 204 -1 96 20 143 93 210 89 82 179 105 287 70z
m185 -591 c-13 -2 -33 -2 -45 0 -13 2 -3 4 22 4 25 0 35 -2 23 -4z m-155 -10
c-49 -2 -127 -2 -175 0 -49 1 -9 3 87 3 96 0 136 -2 88 -3z"/>
<path d="M5833 8769 c-49 -21 -56 -39 -15 -36 l27 2 11 -140 c5 -77 13 -133
17 -125 4 9 6 84 5 166 l-3 151 -42 -18z"/>
<path d="M5015 8413 c49 -89 128 -200 132 -186 5 15 -66 156 -106 211 -17 23
-38 42 -47 42 -12 0 -8 -15 21 -67z"/>
<path d="M4250 7736 c0 -9 185 -129 232 -152 47 -22 62 -10 26 21 -59 51 -258
152 -258 131z"/>
<path d="M6986 8435 c-45 -60 -122 -212 -112 -222 10 -11 33 22 100 142 64
116 70 156 12 80z"/>
<path d="M7682 7710 c-85 -46 -152 -91 -171 -114 -25 -30 9 -18 123 45 112 61
146 85 146 101 0 16 -25 7 -98 -32z"/>
<path d="M6661 7838 c-169 -80 -205 -111 -223 -191 -5 -23 -29 -80 -53 -127
-24 -47 -53 -119 -66 -160 -31 -104 -55 -148 -154 -285 -122 -169 -205 -250
-205 -202 0 22 -32 44 -75 50 -50 8 -82 43 -149 162 -30 53 -74 111 -112 150
-39 39 -64 72 -64 85 0 64 -81 118 -230 153 -155 37 -170 40 -170 29 0 -18 62
-186 86 -234 37 -73 79 -115 133 -133 27 -9 80 -35 117 -57 38 -23 114 -59
169 -80 107 -41 137 -59 169 -101 l20 -27 -24 -32 c-48 -67 -168 -193 -254
-269 -66 -60 -113 -91 -190 -127 -55 -27 -126 -70 -156 -96 -30 -25 -72 -51
-93 -57 -65 -17 -121 -83 -151 -177 -27 -87 -58 -213 -53 -218 1 -2 66 17 142
41 163 52 204 79 241 162 13 30 45 83 70 116 26 34 66 103 89 152 45 96 133
206 256 319 118 109 179 142 179 97 0 -29 38 -51 87 -51 52 0 75 -19 171 -140
38 -48 92 -102 126 -125 33 -24 64 -54 71 -72 15 -35 48 -68 90 -90 47 -25
345 -57 345 -37 0 4 -18 40 -41 82 -102 189 -152 241 -239 255 -19 3 -76 21
-127 41 -50 19 -132 44 -181 55 -101 22 -166 51 -182 81 -14 26 20 89 128 234
123 166 159 204 261 271 57 38 117 88 149 124 29 34 60 61 67 61 24 0 82 58
104 104 20 40 57 277 49 310 -2 8 -41 -6 -127 -46z m92 -23 c8 -19 -20 -188
-38 -231 -17 -41 -61 -84 -85 -84 -23 0 -30 20 -30 80 l0 49 -65 -6 -65 -6 0
31 c0 47 41 87 142 137 94 47 132 55 141 30z m-178 -249 c17 -26 11 -56 -12
-56 -20 0 -76 57 -68 70 12 20 64 11 80 -14z m-100 -36 c8 -13 -24 -74 -81
-150 -42 -56 -49 -62 -52 -42 -3 21 41 129 74 180 15 22 48 30 59 12z m75 -55
c10 -13 8 -22 -16 -56 -44 -64 -144 -134 -144 -101 0 11 74 119 103 150 24 26
40 28 57 7z m-1186 -31 c33 -8 80 -27 104 -40 78 -46 79 -104 2 -104 -51 0
-64 -18 -57 -80 3 -27 2 -52 -2 -55 -18 -10 -72 8 -97 34 -46 46 -124 227
-108 252 8 14 90 10 158 -7z m140 -177 c23 -17 15 -45 -20 -70 -34 -25 -54
-15 -54 26 0 53 34 73 74 44z m115 -62 c47 -44 109 -141 97 -152 -7 -8 -144
105 -170 140 -16 22 -17 29 -6 42 18 22 26 19 79 -30z m-50 -70 c75 -57 121
-109 99 -113 -22 -4 -117 40 -155 72 -31 26 -43 63 -26 79 11 12 20 8 82 -38z
m789 -502 c56 -26 85 -64 65 -84 -6 -6 -20 -8 -32 -4 -33 10 -171 104 -171
116 0 17 77 1 138 -28z m-88 -49 c92 -57 110 -72 110 -95 0 -48 -75 -15 -148
66 -82 89 -72 97 38 29z m317 -34 c18 -11 46 -39 64 -62 37 -51 89 -151 89
-172 0 -36 -202 -26 -281 14 -74 38 -76 73 -5 91 64 16 72 28 52 85 -9 26 -13
50 -10 55 9 15 58 10 91 -11z m-102 -40 c9 -41 -9 -62 -49 -58 -38 4 -44 25
-16 61 29 37 57 35 65 -3z m-1075 -101 c0 -13 -118 -137 -143 -151 -22 -11
-47 5 -47 31 0 19 69 80 126 110 43 23 64 27 64 10z m45 -36 c-10 -42 -94
-163 -122 -176 -33 -15 -51 3 -35 37 13 29 140 166 154 166 6 0 7 -11 3 -27z
m-290 -162 c-4 -20 -8 -46 -11 -58 -4 -22 -1 -23 55 -23 68 0 87 -14 72 -53
-15 -38 -67 -73 -151 -100 -162 -54 -173 -48 -141 68 35 127 75 192 131 213
36 14 52 -3 45 -47z m85 -1 c25 -35 20 -60 -11 -60 -29 0 -59 28 -59 55 0 46
39 48 70 5z"/>
<path d="M4090 6883 c-30 -11 -70 -57 -76 -89 -7 -39 15 -84 49 -103 25 -13
75 -11 110 4 13 5 17 2 17 -12 0 -22 -61 -83 -105 -106 l-30 -16 30 -1 c69 0
123 64 140 166 17 107 -52 187 -135 157z m58 -19 c71 -49 59 -139 -20 -159
-22 -6 -33 -1 -58 23 -39 40 -39 72 4 116 38 41 43 42 74 20z"/>
<path d="M7853 6880 c-33 -13 -29 -17 20 -17 55 0 87 -17 87 -48 0 -30 -24
-54 -61 -62 -38 -7 -37 -18 3 -32 48 -17 68 -40 68 -77 0 -47 -37 -70 -109
-67 -37 1 -51 -1 -44 -8 17 -17 131 -12 159 6 35 22 34 92 -1 125 -30 28 -31
35 -5 67 44 56 12 124 -57 122 -21 0 -48 -4 -60 -9z"/>
<path d="M4470 5848 c-92 -41 -244 -148 -211 -148 27 0 271 136 271 151 0 12
-29 10 -60 -3z"/>
<path d="M5109 5188 c-43 -60 -111 -196 -107 -216 2 -12 13 -4 34 28 33 47
124 212 124 223 0 19 -23 2 -51 -35z"/>
<path d="M7500 5867 c0 -26 225 -167 266 -167 33 0 7 22 -103 86 -65 37 -128
74 -140 82 -20 13 -23 12 -23 -1z"/>
<path d="M6870 5220 c0 -26 118 -237 144 -260 43 -35 -1 69 -79 191 -43 67
-65 90 -65 69z"/>
<path d="M5984 4965 c-52 -31 -74 -81 -74 -171 0 -76 9 -98 50 -119 112 -58
217 76 129 164 -35 35 -89 42 -127 15 -21 -14 -22 -14 -22 9 0 28 63 91 114
113 l31 13 -30 1 c-16 0 -49 -11 -71 -25z m63 -125 c69 -42 43 -159 -35 -160
-67 -1 -100 116 -46 159 33 26 41 26 81 1z"/>
</g>
</svg>
