<?xml version="1.0" encoding="UTF-8"?>
<!-- Created with Inkscape (http://www.inkscape.org/) -->
<svg version="1.1" viewBox="0 0 514.27 513.21" xmlns="http://www.w3.org/2000/svg">
 <g transform="translate(1.056 1.056)">
  <path d="m113.37 82.729c3.8844 5.469 10.924 8.64 16.931 11.198 17.086 7.2774 36.972 7.8561 55.146 5.5948 6.886-0.85711 14.416-3.6448 21.285-3.6448 4.6991 0 9.8542 2.0062 14.512 2.7762 9.7077 1.6048 19.682 2.7384 29.508 2.9413v239.45c0 18.193-0.35814 35.395-10.158 51.276 13.25-3.8989 16.58-23.667 17.973-35.313 1.6999-14.205 0.89186-28.752 0.89186-43.053v-69.659c10.116 0 20.542-0.78788 30.476-2.8061 4.1211-0.83754 8.8109-3.6223 12.856-3.8859 3.1568-0.2057 7.1017 2.2581 10.364 2.6823 10.425 1.3545 22.116-2.7553 24.187-14.372-6.889 1.9837-12.866 4.9927-20.317 4.2714-4.7982-0.46391-10.585-4.743-14.996-4.3628-4.7382 0.40809-9.8238 2.7278-14.512 3.7563-9.1218 2.0002-18.731 3.1075-28.057 3.1075v-38.699c0-2.9116-1.4043-11.052 0.77539-13.186 1.3907-1.3621 4.2384-0.80706 5.9968-0.84961 4.1485-0.10591 8.4625-0.59885 12.577-1.1655 5.3313-0.7346 10.772-1.4391 15.963-2.9039 2.5599-0.72294 5.7763-2.7079 8.4287-2.628 4.1272 0.12078 8.7571 2.407 12.856 3.2221 15.221 3.0262 43.096 4.6149 47.89-15.383-13.833 5.7589-26.384 10.101-41.602 7.0389-4.0982-0.8254-8.2801-2.0845-12.094-3.8036-2.3311-1.0506-5.1146-3.2687-7.7398-3.2798-4.8523-0.017-10.707 3.3213-15.48 4.4542-9.0928 2.158-18.297 3.0815-27.573 3.8138v-67.723c9.4514 0 19.228-0.94482 28.541-2.624 4.8736-0.87836 10.552-3.1862 15.48-3.0546 5.892 0.15738 12.033 2.3331 17.898 3.1233 18.203 2.4521 37.286 3.355 55.146-1.7304 8.7364-2.4873 18.332-6.9547 23.703-14.58-4.8741 0.71962-9.6912 2.7831-14.512 3.9258-11.119 2.636-23.387 4.6418-34.829 4.2769-9.8118-0.31316-19.913-1.0355-29.508-3.3094-5.6202-1.3318-12.701-5.0437-18.382-5.0623-4.743-0.01711-10.298 2.6156-14.996 3.5551-10.473 2.0944-21.252 3.6014-31.927 3.8629-10.908 0.26733-22.227-0.75709-32.894-3.1006-5.1334-1.1277-10.798-3.9531-15.963-4.3597-3.2696-0.25737-7.4636 1.6645-10.642 2.4491-6.1797 1.525-12.546 2.7334-18.866 3.4922-22.348 2.6828-42.954 1.5041-64.337-5.7299m-11.126 16.931c13.712 20.995 9.191 51.112 9.191 74.98v81.268c0 28.895-0.0748 56.251 10.364 83.687 6.1 16.021 15.487 31.306 26.967 44.02 28.744 31.837 66.292 44.988 108.28 44.988 25.183 0 48.881-4.4635 71.11-16.864 30.703-17.128 54.397-47.348 64.809-80.851 7.6855-24.731 7.2686-49.378 7.2686-74.98v-83.203c0-23.37-3.7678-52.634 9.6748-73.045-12.314 0.28982-15.416 19.63-16.799 29.024-4.7255 32.079-2.0664 65.817-2.0664 98.199 0 23.019 1.6157 46.75-0.56554 69.659-2.8202 29.615-14.896 58.906-35.274 80.785-7.6924 8.2583-16.175 15.556-25.595 21.767-10.999 7.2513-23.134 12.28-35.797 15.759-17.145 4.7108-35.589 4.0165-53.211 3.5845-14.001-0.34315-28.334-4.4761-41.118-9.9477-11.085-4.744-21.228-11.42-30.476-19.109-27.606-22.955-44.425-57.311-47.808-92.839-0.95091-9.9795-0.0749-20.449-0.0749-30.476v-60.467c0-26.943 2.3215-55.199-2.9029-81.752-1.6941-8.6096-5.0808-23.688-15.963-24.187z" fill="#ceaa37"/>
  <rect x="-1.056" y="-1.056" width="514.27" height="513.21" fill-opacity="0" stroke-linejoin="round" stroke-miterlimit="1.4" stroke-width="7.3474" style="paint-order:markers stroke fill"/>
 </g>
</svg>
