<svg viewBox="0 0 160 200" xmlns="http://www.w3.org/2000/svg">
  <path stroke="currentColor" stroke-width="0.6" opacity="0.35" d="M4 150H156"/>
  <path fill="currentColor" d="M76 52L78 150H82L84 52C82 48 78 48 76 52Z"/>
  <path fill="currentColor" opacity="0.75" d="M76 150L77 162H83L84 150Z"/>
  <path fill="none" stroke="currentColor" stroke-width="1.4" stroke-linecap="round" d="M80 140L46 122M80 140L114 122M80 134L40 116M80 134L120 116M80 122L50 106M80 122L110 106M80 116L44 100M80 116L116 100M80 104L54 90M80 104L106 90M80 98L50 84M80 98L110 84M80 86L60 74M80 86L100 74M80 80L58 70M80 80L102 70M80 68L66 58M80 68L94 58M80 62L68 52M80 62L92 52M80 50L72 42M80 50L88 42M80 44L76 36M80 44L84 36M80 38L80 26"/>
  <path fill="none" stroke="currentColor" stroke-width="0.7" stroke-linecap="round" opacity="0.85" d="M46 122L40 120M46 122L44 126M114 122L120 120M114 122L116 126M40 116L34 114M120 116L126 114M50 106L44 104M110 106L116 104M44 100L38 98M116 100L122 98M54 90L50 88M106 90L110 88M50 84L46 82M110 84L114 82M60 74L56 72M100 74L104 72M58 70L54 68M102 70L106 68M66 58L62 56M94 58L98 56M68 52L66 48M92 52L94 48M80 26L80 22M80 26L76 24M80 26L84 24"/>
</svg>
